<svg xmlns="http://www.w3.org/2000/svg" viewBox="0 0 240 240" role="img" aria-label="SZRON">
  <rect width="240" height="240" rx="40" fill="#3c56f4"/>
  <g fill="#ffffff">
    <!-- lewy nawias [ -->
    <rect x="25" y="83" width="14" height="74"/>
    <rect x="25" y="83" width="40" height="14"/>
    <rect x="25" y="143" width="40" height="14"/>
    <!-- prawy nawias ] -->
    <rect x="201" y="83" width="14" height="74"/>
    <rect x="175" y="83" width="40" height="14"/>
    <rect x="175" y="143" width="40" height="14"/>
    <!-- glif „S" (outline Inter Bold, wyśrodkowany między nawiasami) -->
    <path transform="translate(86.42 157) scale(0.049664 -0.049664)" d="M691 -20Q505 -20 367.0 36.0Q229 92 152.0 206.0Q75 320 72 492H411Q416 420 450.5 371.0Q485 322 545.5 297.5Q606 273 687 273Q760 273 813.0 293.0Q866 313 894.5 349.0Q923 385 923 433Q923 476 896.5 506.0Q870 536 817.0 559.0Q764 582 682 600L524 637Q331 681 221.0 781.0Q111 881 111 1049Q111 1187 186.0 1291.0Q261 1395 391.5 1452.5Q522 1510 691 1510Q864 1510 991.0 1451.5Q1118 1393 1188.0 1288.5Q1258 1184 1260 1046H921Q914 1127 855.0 1172.0Q796 1217 690 1217Q620 1217 572.0 1198.5Q524 1180 500.0 1147.5Q476 1115 476 1073Q476 1027 503.0 995.5Q530 964 580.0 943.0Q630 922 696 907L825 877Q933 854 1017.5 814.5Q1102 775 1160.5 720.0Q1219 665 1249.5 593.0Q1280 521 1280 432Q1280 291 1209.5 189.5Q1139 88 1007.5 34.0Q876 -20 691 -20Z"/>
  </g>
</svg>
