<svg xmlns="http://www.w3.org/2000/svg" viewBox="0 0 240 240" aria-label="SZRON">
  <rect width="240" height="240" rx="40" fill="#3c56f4"/>
  <g fill="rgba(255,255,255,0.85)">
    <rect x="24" y="58" width="192" height="12"/><rect x="24" y="32" width="12" height="32"/><rect x="204" y="32" width="12" height="32"/>
    <rect x="24" y="170" width="192" height="12"/><rect x="24" y="176" width="12" height="32"/><rect x="204" y="176" width="12" height="32"/>
  </g>
  <path transform="translate(19.46 142) scale(0.029297 -0.029297)" d="M691 -20Q505 -20 367.0 36.0Q229 92 152.0 206.0Q75 320 72 492H411Q416 420 450.5 371.0Q485 322 545.5 297.5Q606 273 687 273Q760 273 813.0 293.0Q866 313 894.5 349.0Q923 385 923 433Q923 476 896.5 506.0Q870 536 817.0 559.0Q764 582 682 600L524 637Q331 681 221.0 781.0Q111 881 111 1049Q111 1187 186.0 1291.0Q261 1395 391.5 1452.5Q522 1510 691 1510Q864 1510 991.0 1451.5Q1118 1393 1188.0 1288.5Q1258 1184 1260 1046H921Q914 1127 855.0 1172.0Q796 1217 690 1217Q620 1217 572.0 1198.5Q524 1180 500.0 1147.5Q476 1115 476 1073Q476 1027 503.0 995.5Q530 964 580.0 943.0Q630 922 696 907L825 877Q933 854 1017.5 814.5Q1102 775 1160.5 720.0Q1219 665 1249.5 593.0Q1280 521 1280 432Q1280 291 1209.5 189.5Q1139 88 1007.5 34.0Q876 -20 691 -20Z" fill="#ffffff"/>
    <path transform="translate(56.57 142) scale(0.029297 -0.029297)" d="M109 0V202L688 1000Q748 1083 821.5 1165.5Q895 1248 970 1330L994 1216Q891 1206 787.5 1204.0Q684 1202 580 1202H108V1490H1281V1287L713 504Q650 418 573.5 332.0Q497 246 419 160L395 274Q506 284 615.5 286.0Q725 288 835 288H1282V0Z" fill="#ffffff"/>
    <path transform="translate(94.79 142) scale(0.029297 -0.029297)" d="M116 0V1490H726Q894 1490 1016.0 1429.5Q1138 1369 1203.5 1258.0Q1269 1147 1269 995Q1269 842 1202.0 733.5Q1135 625 1011.0 569.0Q887 513 716 513H327V792H652Q735 792 790.5 814.0Q846 836 874.5 881.0Q903 926 903 995Q903 1065 874.5 1111.0Q846 1157 790.0 1180.5Q734 1204 651 1204H469V0ZM934 0 571 681H949L1321 0Z" fill="#ffffff"/>
    <path transform="translate(132.02 142) scale(0.029297 -0.029297)" d="M792 -20Q591 -20 430.5 69.0Q270 158 176.0 329.0Q82 500 82 744Q82 990 176.0 1161.0Q270 1332 430.5 1421.0Q591 1510 792 1510Q992 1510 1152.5 1421.0Q1313 1332 1406.5 1161.0Q1500 990 1500 744Q1500 499 1406.5 328.0Q1313 157 1152.5 68.5Q992 -20 792 -20ZM792 290Q900 290 978.0 342.0Q1056 394 1098.0 495.5Q1140 597 1140 744Q1140 892 1098.0 994.0Q1056 1096 978.0 1148.0Q900 1200 792 1200Q683 1200 605.0 1147.5Q527 1095 485.0 993.5Q443 892 443 744Q443 597 485.0 496.0Q527 395 605.0 342.5Q683 290 792 290Z" fill="#ffffff"/>
    <path transform="translate(175.89 142) scale(0.029297 -0.029297)" d="M116 0V1490H504L920 817Q960 750 998.5 678.5Q1037 607 1075.0 520.0Q1113 433 1152 320H1119Q1113 402 1106.5 502.0Q1100 602 1095.0 696.5Q1090 791 1090 856V1490H1452V0H1063L682 617Q631 702 589.5 778.0Q548 854 506.5 943.0Q465 1032 409 1152H450Q457 1045 463.5 943.5Q470 842 474.0 757.5Q478 673 478 617V0Z" fill="#ffffff"/>
</svg>