<svg xmlns="http://www.w3.org/2000/svg" viewBox="0 28.26 254.45 62.74" aria-label="[SZRON]">
    <rect x="0.00" y="39.26" width="8" height="40.74" fill="#3c56f4"/><rect x="0.00" y="39.26" width="22" height="8" fill="#3c56f4"/><rect x="0.00" y="72.00" width="22" height="8" fill="#3c56f4"/>
    <rect x="246.45" y="39.26" width="8" height="40.74" fill="#3c56f4"/><rect x="232.45" y="39.26" width="22" height="8" fill="#3c56f4"/><rect x="232.45" y="72.00" width="22" height="8" fill="#3c56f4"/>
    <path transform="translate(33.68 80) scale(0.027344 -0.027344)" d="M681 -22Q502 -22 369.5 33.0Q237 88 163.0 196.0Q89 304 85 462H382Q388 387 427.0 336.5Q466 286 531.0 261.0Q596 236 678 236Q760 236 820.5 259.5Q881 283 915.0 326.0Q949 369 949 426Q949 477 918.5 511.5Q888 546 831.0 571.0Q774 596 692 615L528 656Q339 702 232.0 800.5Q125 899 125 1061Q125 1196 197.5 1297.0Q270 1398 396.5 1454.0Q523 1510 685 1510Q850 1510 973.0 1453.5Q1096 1397 1165.0 1296.5Q1234 1196 1236 1065H941Q933 1155 864.5 1204.0Q796 1253 682 1253Q605 1253 550.0 1231.0Q495 1209 466.5 1170.0Q438 1131 438 1081Q438 1026 471.0 989.5Q504 953 559.0 930.5Q614 908 676 893L811 860Q905 839 986.0 803.0Q1067 767 1128.0 714.5Q1189 662 1222.5 590.0Q1256 518 1256 424Q1256 289 1188.0 188.5Q1120 88 991.0 33.0Q862 -22 681 -22Z" fill="#0a0e1f"/>
    <path transform="translate(68.34 80) scale(0.027344 -0.027344)" d="M115 0V183L719 1036Q775 1114 842.0 1192.5Q909 1271 977 1348L1000 1249Q900 1240 799.5 1238.5Q699 1237 599 1237H112V1490H1245V1306L652 468Q593 386 523.5 304.5Q454 223 383 142L360 241Q465 250 569.5 251.5Q674 253 778 253H1248V0Z" fill="#0a0e1f"/>
    <path transform="translate(103.53 80) scale(0.027344 -0.027344)" d="M135 0V1490H716Q886 1490 1005.0 1430.0Q1124 1370 1186.5 1261.0Q1249 1152 1249 1005Q1249 858 1185.5 751.5Q1122 645 1001.5 588.5Q881 532 709 532H315V779H660Q754 779 814.0 804.5Q874 830 904.0 880.5Q934 931 934 1005Q934 1081 904.0 1132.5Q874 1184 813.5 1211.0Q753 1238 659 1238H440V0ZM964 0 601 678H932L1302 0Z" fill="#0a0e1f"/>
    <path transform="translate(138.31 80) scale(0.027344 -0.027344)" d="M789 -20Q592 -20 434.5 70.0Q277 160 185.5 331.0Q94 502 94 744Q94 987 185.5 1158.5Q277 1330 434.5 1420.0Q592 1510 789 1510Q987 1510 1144.0 1420.0Q1301 1330 1392.5 1158.5Q1484 987 1484 744Q1484 502 1392.5 331.0Q1301 160 1144.0 70.0Q987 -20 789 -20ZM789 251Q905 251 991.5 307.5Q1078 364 1126.0 474.5Q1174 585 1174 744Q1174 905 1126.0 1015.5Q1078 1126 991.5 1182.5Q905 1239 789 1239Q674 1239 587.0 1182.0Q500 1125 452.0 1014.5Q404 904 404 744Q404 585 452.0 475.0Q500 365 587.0 308.0Q674 251 789 251Z" fill="#0a0e1f"/>
    <path transform="translate(179.46 80) scale(0.027344 -0.027344)" d="M135 0V1490H475L946 736Q982 678 1019.0 610.0Q1056 542 1094.5 459.0Q1133 376 1171 272H1140Q1133 355 1127.5 449.0Q1122 543 1118.0 629.0Q1114 715 1114 775V1490H1426V0H1085L657 684Q610 761 570.0 833.5Q530 906 486.5 993.5Q443 1081 383 1203H422Q428 1095 434.0 996.0Q440 897 443.5 816.5Q447 736 447 685V0Z" fill="#0a0e1f"/>
</svg>